<?xml version="1.0" encoding="utf-8"?>
<!-- Generator: Adobe Illustrator 27.0.1, SVG Export Plug-In . SVG Version: 6.00 Build 0)  -->
<svg version="1.1" id="Layer_1" xmlns="http://www.w3.org/2000/svg" xmlns:xlink="http://www.w3.org/1999/xlink" x="0px" y="0px"
	 viewBox="0 0 288 288" style="enable-background:new 0 0 288 288;" xml:space="preserve">
<style type="text/css">
	.st0{fill:#FFFFFF;}
</style>
<g>
	<path class="st0" d="M147,29.3L147,29.3c-65.8,0-119.2,53.4-119.2,119.2v0c0,59.1,43,108.2,99.5,117.6v-83.2H98.7v-33h28.6v-24.4
		c0-28.3,17.3-43.7,42.5-43.7c8.5,0,17,0.5,25.5,1.3v29.6h-17.5c-13.7,0-16.3,6.5-16.3,16.1v21.1h32.7l-4.3,33h-28.5v84
		c59-7.1,104.8-57.4,104.8-118.4v0C266.2,82.7,212.8,29.3,147,29.3z"/>
</g>
</svg>
