<?xml version="1.0" encoding="utf-8"?>
<!-- Generator: Adobe Illustrator 27.0.1, SVG Export Plug-In . SVG Version: 6.00 Build 0)  -->
<svg version="1.1" id="Layer_1" xmlns="http://www.w3.org/2000/svg" xmlns:xlink="http://www.w3.org/1999/xlink" x="0px" y="0px"
	 viewBox="0 0 288 288" style="enable-background:new 0 0 288 288;" xml:space="preserve">
<style type="text/css">
	.st0{fill:#FFFFFF;}
</style>
<path class="st0" d="M144,120.3c-13.3,0-24.1,10.8-24.1,24.1c0,13.3,10.8,24.1,24.1,24.1c13.3,0,24.1-10.8,24.1-24.1
	C168.1,131,157.3,120.3,144,120.3z"/>
<path class="st0" d="M175,85.9h-62c-15.2,0-27.4,12.3-27.4,27.4v62c0,15.2,12.3,27.4,27.4,27.4h62c15.2,0,27.4-12.3,27.4-27.4v-62
	C202.4,98.2,190.1,85.9,175,85.9z M144,181.5c-20.5,0-37.2-16.6-37.2-37.2c0-20.5,16.6-37.2,37.2-37.2c20.5,0,37.2,16.6,37.2,37.2
	C181.2,164.9,164.5,181.5,144,181.5z M182.6,110.3c-3.6,0-6.6-2.9-6.6-6.6c0-3.6,2.9-6.6,6.6-6.6s6.6,2.9,6.6,6.6
	C189.1,107.4,186.2,110.3,182.6,110.3z"/>
<path class="st0" d="M144,20.3L144,20.3C75.7,20.3,20.3,75.7,20.3,144v0c0,68.3,55.4,123.7,123.7,123.7h0
	c68.3,0,123.7-55.4,123.7-123.7v0C267.7,75.7,212.3,20.3,144,20.3z M215.6,174.3c0,22.8-18.5,41.3-41.3,41.3h-60.6
	c-22.8,0-41.3-18.5-41.3-41.3v-60.6c0-22.8,18.5-41.3,41.3-41.3h60.6c22.8,0,41.3,18.5,41.3,41.3V174.3z"/>
</svg>
