<?xml version="1.0" encoding="utf-8"?>
<!-- Generator: Adobe Illustrator 27.0.1, SVG Export Plug-In . SVG Version: 6.00 Build 0)  -->
<svg version="1.1" xmlns="http://www.w3.org/2000/svg" xmlns:xlink="http://www.w3.org/1999/xlink" x="0px" y="0px"
	 viewBox="0 0 432 432" style="enable-background:new 0 0 432 432;" xml:space="preserve">
<style type="text/css">
	.st0{display:none;}
	.st1{fill:#072626;}
	.st2{fill:#6F8C79;}
	.st3{fill:#76897D;}
	.st4{fill:#CB6538;stroke:#5E2615;stroke-width:2;stroke-miterlimit:10;}
	.st5{opacity:0.11;fill:#5E2615;}
	.st6{fill:#5E2615;}
	.st7{fill:#F1DED1;stroke:#AF7568;stroke-width:2;stroke-miterlimit:10;}
	.st8{fill:none;stroke:#5E2615;stroke-width:21;stroke-miterlimit:10;}
	.st9{opacity:0.92;fill:#76897D;}
	.st10{fill:#0F4B4C;}
	.st11{fill:#FFFFFF;}
	.st12{fill:#0F4B4C;stroke:#FFFFFF;stroke-width:0.25;stroke-miterlimit:10;}
	.st13{fill:none;stroke:#072626;stroke-miterlimit:10;}
	.st14{fill:#DF8E6F;}
</style>
<g id="Layer_1" class="st0">
</g>
<g id="Layer_2">
	<circle class="st1" cx="222.2" cy="233.6" r="121.5"/>
	<path class="st2" d="M251.2,148c0,0-5.7-6.6,4.1-7.9c9.8-1.3,13.8,9.3,13.8,9.3l-13-2.8L251.2,148z"/>
	<path class="st2" d="M198.7,139.2c0,0-0.8-10.7,9.3-8.9c0,0,29-0.6,35.1,6.6s6.5,13.5,6.5,13.5s-22.1-4.1-22.1-4.1
		c0,0-16.7,2.4-16.7,2.4l-8.9,1.3L198.7,139.2z"/>
	<path class="st2" d="M115.1,317.8c0,0,27-9.4,13.3-63c0,0-0.8-17.9,17.2-27.7c0,0,7.6-29.9,8.1-44.6c0.6-14.7,30.7-37.7,31.7-38
		c0.9-0.3,6.1-1.4,7.5,0c1.4,1.4,5,6.3,5,6.3s3.1-4.9,11.8-2.6c8.7,2.3,4.8,6.7,4.8,6.7l-28.3,94.2l28.3,16.5l14.5,19.9
		c0,0-10.2,10.2-11.1,11c-0.9,0.9-30.6,24.1-31.8,25.5s-20.6,23.5-20.6,23.5l-4.2,8.7C161.3,354.3,130.7,336.2,115.1,317.8z"/>
	<path class="st3" d="M292.9,204.6c0,0,7.9,12.1,10.4,18c2.4,5.9,1.8,8.5,8.9,14.2c7.1,5.7,8,14.5,7.2,18.4
		c-0.8,3.8-6.9,19.3,1.8,24.8c8.7,5.5,10.6,13.9,10.6,13.9l-7.9,18.3l-11.2-4.6l-6.1-31.7c0,0-9.4-41.4-9.7-42.2
		C296.6,232.9,292.9,204.6,292.9,204.6z"/>
	<path class="st2" d="M330.5,320.3c0,0-23.9-45.8-13.3-63c0,0,0.8-17.9-17.2-27.7c0,0-6.8-30.2-7.1-44.9
		c-0.9-36.4-35.3-40.6-36.3-40.9s-1.8-1.4-3.2,0c-1.4,1.4-5.2,0-5.2,0s-26-11.8-35.1-10.7c-10.6,1.3-13.6,6.1-13.6,6.1l66,70.7
		l-34.4,58.1L216.7,288c0,0,10.2,10.2,11.1,11c0.9,0.9,30.6,24.1,31.8,25.5c1.2,1.4,20.6,23.5,20.6,23.5l4.2,8.7
		C284.3,356.8,315,338.7,330.5,320.3z"/>
	<path class="st4" d="M154.6,171.3c0,0,26.8-17.9,67-17.6c19.6,0.1,42.5,4.6,66.9,17.6c0,0,0.6,0.6-0.6,8.5
		c-1.1,7.2-6.9,19.9-6.9,19.9s-2.1,1.3-5.1,0.4c-3-0.9-108.1,1-108.1,1s-4.3,1.6-6.2-2.3C159.7,195,151.1,174.8,154.6,171.3z"/>
	<path class="st4" d="M212.1,278.2l1.1,7.7c0,0,0.4,4-3.5,5.7c-3.9,1.7-32.5,16-38.3,27.4l-2.7,4.7c0,0,34.9,12.4,59.8-2.2
		c25-14.6,31.8-30.3,31.8-30.3s-8.6-0.9-14.7-4.5c0,0-3.7-1.8-3.7-7.7c0-5.9,0.4-7.5,0.4-7.5l-20.7-3.1L212.1,278.2z"/>
	<path class="st5" d="M211.8,278.8c0,0,4.8,11-3.7,13.8c0,0,6.2,9.7,24.2,2.7c0,0,10.7-4.2,8.1-21.3c-2.8-18.7-16.2-11.5-16.2-11.5
		l-12.5,10.1V278.8z"/>
	<path class="st4" d="M167,201.1c0,0,8.6,38.7,13,50.9c1.7,4.7,4.5,15.1,10.8,18.6c3.8,2.1,8.4,4.6,14.3,6.2
		c10.2,2.7,20.9,2.8,31.2,0.5c5-1.1,10.4-2.7,15-5c0,0,6.5-2.8,9.2-8.1s11.4-41.8,11.4-41.8l4.3-22.6
		C276.2,199.8,223.9,173.6,167,201.1z"/>
	<path class="st6" d="M234.1,218c0.4-1,1-1.8,1.8-2.5c1.6-1.4,5-3.9,9.3-3.5c8.6,0.9,8.9-2,8.9-2s1.1,1.1,0.6,3.2
		c0,0,1.7-0.3,2.4-1.3c0,0,1,1.9-0.9,4.5c-2,2.7-6.2,2.2-7.8,1.9c-2.3-0.5-4.7,0.1-6.5,1.6c-0.3,0.3-0.6,0.5-0.9,0.9
		c-1.1,1.2-2.8,1.9-4.4,1.5c-0.5-0.1-1-0.3-1.5-0.6C233.4,220.7,233.6,219.2,234.1,218z"/>
	<path class="st6" d="M209.4,218c-0.4-1-1-1.8-1.8-2.5c-1.6-1.4-5-3.9-9.3-3.5c-8.6,0.9-8.9-2-8.9-2s-1.1,1.1-0.6,3.2
		c0,0-1.7-0.3-2.4-1.3c0,0-1,1.9,0.9,4.5c2,2.7,6.2,2.2,7.8,1.9c2.3-0.5,4.7,0.1,6.5,1.6c0.3,0.3,0.6,0.5,0.9,0.9
		c1.1,1.2,2.8,1.9,4.4,1.5c0.5-0.1,1-0.3,1.5-0.6C210,220.7,209.8,219.2,209.4,218z"/>
	<g>
		<path class="st6" d="M210.1,241.9c4.5,2.9,9.8,4.9,15.1,3.8c0,0,1.5-0.3,1.5-0.3l1.5-0.5c0.5-0.2,1-0.4,1.5-0.6
			c1.5-0.6,2.9-1.6,4.4-2.3c-0.7,0.8-1.5,1.7-2.4,2.5C225.2,250.1,215.3,248.9,210.1,241.9L210.1,241.9z"/>
	</g>
	<path class="st7" d="M168.7,323.6c0,0-4.5,0.2-3.5,6.8c0,0-5.8,14.3-4.7,22.4c1.2,8.2,80.9,31.8,123.7,0.4c0,0,15.7-5.7,22.5-14.5
		c0,0-10.8-37.5-33.2-44l-8.4-1.7c0,0-1-4.7-4.9-1.8s-18.7,20.8-46.4,31C213.9,322.1,197.1,328.8,168.7,323.6z"/>
	<circle class="st8" cx="222.2" cy="234.9" r="128"/>
	<path class="st6" d="M211.6,242.8c0.7,0.7-1.1,0.6-1.9,0.4c-0.6-0.1-1.6-0.7-1.6-1.6s0.7-1.6,1.6-1.6S211,242.2,211.6,242.8z"/>
	<path class="st6" d="M232.5,242.8c-0.7,0.7,1.1,0.6,1.9,0.4c0.6-0.1,1.6-0.7,1.6-1.6s-0.7-1.6-1.6-1.6S233.1,242.2,232.5,242.8z"/>
	<path class="st2" d="M150.1,205.2c0,0-4.7-40.4,10.1-46.9c14.8-6.5,25.4-19.1,25.4-19.1s8.6-5.7,12,1.2c3.4,6.9,4.1,8.9,4.1,8.9
		l-0.3,1.9c0,0-5.5,0.8-5.9,1c-0.4,0.1-13.5,3.4-14.2,4.1s-13.8,11.8-14.3,12.9c-0.5,1.1-12,24.7-12,24.7l-1.2,13L150.1,205.2z"/>
	<path class="st9" d="M196.9,147.2c0,0-40,15.5-40.7,20.8c0,0-5.4,1.7-3,22.5l11.1,13.1l4,13.6l8.9-21.7c0,0-2.5-34.7,12.8-37.9
		S196.9,147.2,196.9,147.2z"/>
	<path class="st9" d="M258.7,155.4c0,0,29.1,5.5,29.9,11.2c0,0,5.9,1.8,3.3,23.7l-12.3,13.9l-3.6,19.7l-10.7-23.8
		c-1.3-2.8-1.8-5.9-1.6-9c0.6-9.9,0.7-32.8-12.5-35.5C234.3,152.2,258.7,155.4,258.7,155.4z"/>
	<g>
		<path class="st1" d="M243,196.3c-2.3-1.9-4.6-4-5.9-6.7c-1.3-2.7-1.7-5.8-2.5-8.6c-0.7-2.9-1.5-5.8-2.7-8.5
			c-2.6-6-7.7-11-13.9-12.9c-1.9-0.6-4.3-1.2-6.1-0.7c-1.3,0.4-1.1,1.5-0.8,2.6c0.4,0.9,0.8,2.6,1.8,2.9c0.4,0.1,0.9,0,1.4-0.3
			c1.8-1,3.2-2.7,4.4-4.4c0,0-0.2,0.3-0.2,0.3c0.8-3.4,0.7-7.1-1.8-9.6c-1.7-1.7-4.3-2.3-6.5-2.7c-4.2-0.7-6.2,2.4-6,6.2
			c0,0-2.6,0.4-2.6,0.4c-1.1-4.4-4.4-16.7-10-16c-1,0.2-1.7,0.8-2.7,1.5c-9,6.5-18.8,12.1-27.3,19.1c-3.4,2.9-7.5,6.3-8.9,10.5
			c-0.6,2.2-0.9,4.7-1.2,7.1c-1.2,12.7-1.2,26.5-1.2,38.7c-0.5,6.6-4.3,12.6-9.1,16.9c-1.6,1.5-3.5,2.8-5.1,4.4c-3,3.1-5,7.1-6,11.3
			c-1,4.2-1.1,8.8-0.5,13.1c1.2,4.2,2.2,9.3,2.7,13.8c0.4,5,1.5,14.2-4,16.7c-8.1,1.7-14.7,7.2-20.3,13c5.4-6.1,11.9-11.9,19.9-13.9
			c6.9-3.5,1.6-23.1-0.1-29.3c-0.9-4.7-0.8-9.4,0.2-14c1.1-5.1,3.7-10.1,7.6-13.8c5.4-4.4,10.6-10,11.7-17.1c0.1-1,0.2-2.2,0.1-3.1
			c-0.1-10-0.1-19.9,0.4-29.9c0.3-5.1,0.6-10,1.8-15c0.8-2.8,2.5-4.9,4.2-6.8c8.7-9.1,20-15.2,30.1-22.2c1.7-1.1,2.9-2.2,4.7-3.3
			c3.6-2.3,7.6-0.1,9.7,3.1c3,4.4,4.4,9.2,5.6,14.3c0,0-2.6,0.4-2.6,0.4c-0.3-5.4,3.2-9.9,9-8.8c3.1,0.6,5.6,1.3,7.8,3.5
			c3.1,3.1,3.3,8.1,2.2,11.9c-1,1.3-2,2.5-3.3,3.6c-3.7,3.3-6.7,2.3-7.9-2.4c-1.7-6.2,5.5-5.2,9.1-3.9c6.7,2.1,11.9,7.6,14.4,14
			c2.4,5.6,2.5,11.8,4.6,17.3C238.7,192.2,240.8,194.3,243,196.3L243,196.3z"/>
	</g>
	<g>
		<path class="st1" d="M201.3,153.7c-2.8-2.3-9.4-7.4-12.4-3.3c-2.9,4.1-5,8.6-6.6,13.3c-2.3,7.1-3.4,14.5-3.5,21.9
			c0,1-0.1,2.6,0.1,3.6c0.4,3.2,1.6,8,5,8.5c1.3,0.1,3.3-0.4,3.6-1.8c0.5-1.4-1-3.3-2.6-2.6c-1.9,0.7-3.4,2.9-4.5,4.7
			c-2.3,4.2-2.8,9.2-1.8,14c1,4.8,3.3,9.4,6.1,13.5c-3.4-3.8-6.1-8.2-7.6-13.2c-1.4-5.1-1.2-10.7,1.2-15.5c1.6-3,4.2-7,8.3-6.3
			c2.7,0.6,4.3,3.5,3.6,6.1c-0.8,3-4.2,4.3-7,3.8c-3.6-0.5-5.6-3.9-6.6-7c-0.5-1.7-0.8-3.3-0.9-5c0-0.6,0-2.3,0-2.9
			c0.3-12.8,3.7-25.9,11.8-36.1C191.9,144.8,198.2,150.4,201.3,153.7L201.3,153.7z"/>
	</g>
	<g>
		<path class="st1" d="M190.4,142.7c-8.3,6.5-18.1,15.4-20,26.2c-0.5,3.7-0.8,7.4-0.8,11.2c0,3.3,0.2,7.7-2.8,10
			c-0.3,0.2-0.5,0.5-0.7,0.8c-1.6,3-1.7,7-2,10.5c-0.3,5.6,0,11.1,1.1,16.6c1.3,5.5,3,11.1,3.3,16.9c0.8,12.9-7.1,24.8-5.8,37.6
			c1.1,9.9,21.4,26.7,19,35.1c1.1-5.5-8.3-14.4-11.6-18.7c-2.4-2.9-4.9-5.9-6.9-9.1c-7.7-11.3,0.9-27,2.2-39.3
			c0.8-7.4-1.4-14.7-3.1-21.9c-1.2-5.7-1.3-11.6-0.9-17.3c0.2-2.9,0.5-5.8,1.4-8.7c0.4-1.3,1-2.9,2.2-3.9c2.8-2,2.5-5.4,2.7-8.6
			c0.2-3.8,0.6-7.6,1.4-11.4C171.6,157.4,181.4,149.1,190.4,142.7L190.4,142.7z"/>
	</g>
	<g>
		<path class="st1" d="M129.5,290.6c-9.2,14.8-20,29.2-22.3,46.8C103.4,320.5,116.7,300.5,129.5,290.6L129.5,290.6z"/>
	</g>
	<g>
		<path class="st10" d="M326.7,284.8c9.7,8.2,18.7,23,16,36.1C341,307.7,333.2,296.1,326.7,284.8L326.7,284.8z"/>
	</g>
	<g>
		<path class="st1" d="M160.9,275.1c3.9,10.7,12.2,38.3,6.1,48.2C171.9,313.9,163.5,286,160.9,275.1L160.9,275.1z"/>
	</g>
	<g>
		<path class="st1" d="M194.5,272.5c-0.9,4.3-1.3,8.7-0.9,13c0.3,3.8,1.4,7.5,2.3,11.2c0.2,0.6,0,1.1-0.2,1.7
			c0.3-1.1-0.3-2.1-0.7-3.1c-0.4-1-0.7-2.1-1-3.1C191.8,285.8,192,278.7,194.5,272.5L194.5,272.5z"/>
	</g>
	<g>
		<path class="st11" d="M131.6,235.1c0.9-1.3,2.7-2,4.3-1.4C134.4,234.4,133.2,234.9,131.6,235.1L131.6,235.1z"/>
	</g>
	<path class="st10" d="M131.6,234.6c0,0-3-8-19.4,0.6c0,0,2,0.8,4.3,2.8c2,1.8,4.6,3,7.3,2.9c2,0,4.1-0.5,5.6-2.2
		C129.4,238.7,131.1,236.9,131.6,234.6z"/>
	<path class="st10" d="M164.3,309.6c0,0-3.8-4.4-12.2,5c0,0,1.5,0,3.4,0.8c1.7,0.7,3.6,0.8,5.4,0.1c1.2-0.5,2.5-1.3,3.1-2.7
		C163.9,312.7,164.5,311.1,164.3,309.6z"/>
	<path class="st10" d="M162.5,233.6c0,0,2.3-4.3-7.5-8.1c0,0,0.4,1.2,0.4,2.9c0,1.5,0.5,3.1,1.5,4.2c0.7,0.8,1.8,1.5,3.1,1.6
		C160,234.3,161.4,234.3,162.5,233.6z"/>
	<path class="st10" d="M191,277.2c0,0,1.7-3.2-5.5-5.9c0,0,0.3,0.9,0.3,2.1c0,1.1,0.3,2.3,1.1,3.1c0.5,0.6,1.3,1.1,2.2,1.2
		C189.1,277.6,190.1,277.6,191,277.2z"/>
	<path class="st10" d="M199.5,288.2c0,0-1.7-3.2,5.5-5.9c0,0-0.3,0.9-0.3,2.1c0,1.1-0.3,2.3-1.1,3.1c-0.5,0.6-1.3,1.1-2.2,1.2
		C201.3,288.7,200.3,288.7,199.5,288.2z"/>
	<path class="st10" d="M140,199.2c0,0-3.3-4.1-11.1,4c0,0,1.3,0.1,3,0.8c1.5,0.7,3.2,0.9,4.8,0.3c1.1-0.4,2.2-1.1,2.9-2.3
		C139.6,202,140.2,200.6,140,199.2z"/>
	<path class="st10" d="M139,278.5c0,0-3.2,6.2,1.8,10.5c3,2.6,6,2.6,4.8,8.2c0,0,1.8-0.2,2.4-0.6c3.4-2,4.1-12.1-3.5-17.4
		c-1-0.7-2-1.1-3.2-1.3C140.5,277.9,139.6,278,139,278.5z"/>
	<path class="st12" d="M321.3,262.3c0,0,0.9,7,7.7,7.8c4,0.4,6.6-1.3,8.8,4.1c0,0,1.3-1.2,1.7-1.9c1.8-3.7-3.6-12.6-13.1-12.6
		c-1.2,0-2.4,0.2-3.4,0.8C322.2,260.9,321.4,261.4,321.3,262.3z"/>
	<path class="st12" d="M123.1,293.2c0,0-0.9,7-7.7,7.8c-4,0.4-6.6-1.3-8.8,4.1c0,0-1.3-1.2-1.7-1.9c-1.8-3.7,3.6-12.6,13.1-12.6
		c1.2,0,2.4,0.2,3.4,0.8C122.2,291.7,123,292.3,123.1,293.2z"/>
	<path class="st10" d="M170.1,278.8c0,0,1.4,4.5,6.1,3.3c2.8-0.7,4.4-2.5,6.4,0.6c0,0,0.8-1.2,0.9-1.7c0.8-2.9-3.8-7.5-10.2-5.2
		c-0.8,0.3-1.6,0.7-2.2,1.4C170.6,277.6,170.1,278.2,170.1,278.8z"/>
	<g>
		<path class="st1" d="M131.9,271.6c3.4,1.2,6.8,3.7,7.8,7.3C137.5,276,134.6,274.1,131.9,271.6L131.9,271.6z"/>
	</g>
	<path class="st13" d="M170.1,278.8c0,0-6.3-0.2-8-3.6"/>
	<g>
		<path class="st1" d="M191,277.2c1.2,0.5,1.6,1.4,2,2.6C191.7,279.7,190.9,278.3,191,277.2L191,277.2z"/>
	</g>
	<g>
		<path class="st1" d="M199.5,288.2c-1,2.3-2.5,4.2-4.6,5.7C195.8,291.6,197.4,289.6,199.5,288.2L199.5,288.2z"/>
	</g>
	<g>
		<path class="st11" d="M139.7,199.8c3.7-2.2,6.9-4.9,9-8.7C148,195.5,144,199,139.7,199.8L139.7,199.8z"/>
	</g>
	<path class="st10" d="M308,253c0,0-3.3-4.1-11.1,4c0,0,1.3,0.1,3,0.8c1.5,0.7,3.2,0.9,4.8,0.3c1.1-0.4,2.2-1.1,2.9-2.3
		C307.5,255.7,308.2,254.3,308,253z"/>
	<g>
		<path class="st1" d="M307.7,253.6c3.7-2.2,6.9-4.9,9-8.7C315.9,249.3,311.9,252.7,307.7,253.6L307.7,253.6z"/>
	</g>
	<path class="st10" d="M275,269.8c0,0-3.8-1.6-6.2,7.1c0,0,1-0.5,2.4-0.6c1.3-0.1,2.6-0.7,3.5-1.6c0.6-0.7,1.1-1.6,1.1-2.7
		C275.8,271.9,275.7,270.7,275,269.8z"/>
	<g>
		<path class="st1" d="M275.1,270.4c1.6-3.1,2.8-6.1,2.9-9.6C279.3,264.1,277.8,268.2,275.1,270.4L275.1,270.4z"/>
	</g>
	<path class="st10" d="M224.4,173c0,0-3.8-1.6-6.2,7.1c0,0,1-0.5,2.4-0.6c1.3-0.1,2.6-0.7,3.5-1.6c0.6-0.7,1.1-1.6,1.1-2.7
		C225.1,175.1,225,173.9,224.4,173z"/>
	<g>
		<path class="st1" d="M224.4,173.6c1.6-3.1,2.8-6.1,2.9-9.6C228.6,167.3,227.1,171.4,224.4,173.6L224.4,173.6z"/>
	</g>
	<path class="st10" d="M240,184.4c0,0,1.4-2.3,6,1.3c0,0-0.7,0.1-1.5,0.6c-0.7,0.4-1.6,0.7-2.4,0.5c-0.6-0.1-1.2-0.4-1.6-1
		C240.4,185.8,240,185.1,240,184.4z"/>
	<g>
		<path class="st1" d="M240.2,184.7c-2.3,0.2-4.9-1.5-5.2-3.9C236.6,182.4,238.2,183.5,240.2,184.7L240.2,184.7z"/>
	</g>
	<path class="st10" d="M255,278.1c0,0-2-0.8-3.3,3.7c0,0,0.5-0.2,1.3-0.3c0.7-0.1,1.4-0.3,1.8-0.9c0.3-0.4,0.6-0.9,0.6-1.4
		C255.4,279.2,255.3,278.6,255,278.1z"/>
	<g>
		<path class="st1" d="M255,278.4c0.6-1.8,1.1-3.2,1.5-5.1C257.6,275.1,256.7,277.5,255,278.4L255,278.4z"/>
	</g>
	<path class="st10" d="M265.9,285.1c0,0,1-1.9,4.9,0.7c0,0-0.5,0.1-1.2,0.6c-0.6,0.4-1.3,0.6-2,0.5c-0.5-0.1-1-0.3-1.4-0.7
		C266.3,286.2,265.9,285.7,265.9,285.1z"/>
	<g>
		<path class="st1" d="M266.1,285.3c-1.9,0.4-4.2-0.9-4.4-2.9C263.1,283.6,264.4,284.3,266.1,285.3L266.1,285.3z"/>
	</g>
	<path class="st10" d="M303.1,197.1c0,0,3.3-4.1,11.1,4c0,0-1.3,0.1-3,0.8c-1.5,0.7-3.2,0.9-4.8,0.3c-1.1-0.4-2.2-1.1-2.9-2.3
		C303.6,199.8,303,198.4,303.1,197.1z"/>
	<g>
		<path class="st11" d="M303.4,197.7c-4.3-0.9-8.3-4.3-9-8.7C296.5,192.8,299.7,195.5,303.4,197.7L303.4,197.7z"/>
	</g>
	<g>
		<path class="st11" d="M324.3,263.5c-2.9-1.7-4.8-5.4-3.9-8.7C321,258,322.4,260.7,324.3,263.5L324.3,263.5z"/>
	</g>
	<path class="st10" d="M282.1,243.1c0,0,3.4-2,6.7,5.9c0,0-1-0.3-2.4-0.3c-1.3,0-2.5-0.3-3.5-1.1c-0.7-0.6-1.3-1.4-1.4-2.4
		C281.6,245.1,281.6,244,282.1,243.1z"/>
	<g>
		<path class="st1" d="M282.1,243.6c-2.9-1.7-4.8-5.4-3.9-8.7C278.8,238.2,280.2,240.9,282.1,243.6L282.1,243.6z"/>
	</g>
	<path class="st10" d="M301.8,288.8c0,0,2.7-4.1,10.8,2.8c0,0-1.2,0.2-2.8,1c-1.4,0.8-3,1.1-4.5,0.7c-1.1-0.3-2.2-0.8-2.9-2
		C302.4,291.4,301.7,290.1,301.8,288.8z"/>
	<g>
		<path class="st1" d="M302.1,289.4c-4.1-0.4-8.2-3.4-9.3-7.5C295.2,285.3,298.4,287.6,302.1,289.4L302.1,289.4z"/>
	</g>
	<path class="st10" d="M271.4,171.2c0,0,3.5-2.5,8,5.7c0,0-1.1-0.2-2.6,0c-1.4,0.2-2.8-0.1-3.9-0.8c-0.8-0.6-1.5-1.4-1.7-2.5
		C271.1,173.5,270.9,172.3,271.4,171.2z"/>
	<g>
		<path class="st10" d="M271.5,171.8c-3.3-1.6-5.7-5.4-5.2-9.1C267.2,166.2,269.1,169.1,271.5,171.8L271.5,171.8z"/>
	</g>
	<path class="st10" d="M185.5,172.8c0,0,5.5-6.9,18.9,6.7c0,0-2.3,0.1-5.1,1.4c-2.6,1.1-5.5,1.4-8.1,0.5c-1.9-0.6-3.8-1.8-4.8-4
		C186.2,177.5,185.2,175.1,185.5,172.8z"/>
	<g>
		<path class="st1" d="M188.4,174c-4.3-0.9-8.3-4.3-9-8.7C181.5,169.1,184.7,171.8,188.4,174L188.4,174z"/>
	</g>
	<g>
		<path class="st1" d="M162.5,233.6c2.2,1.6,4,3.8,4.5,6.5C165.2,238.1,163.7,236.1,162.5,233.6L162.5,233.6z"/>
	</g>
	<g>
		<path class="st1" d="M164.3,310.5c0.9-1.7,2.2-3,3.9-3.9c0.6-0.3,1.3-0.6,1.9-0.3c-0.6,0.2-1,0.6-1.5,0.9
			C167.3,308.4,165.9,309.6,164.3,310.5L164.3,310.5z"/>
	</g>
	<g>
		<path class="st1" d="M199.3,143.5c-1.5-5.3-1.4-13.8,6-13.5c4.9-0.2,9.7-0.2,14.6,0c9.6,0.7,20.6,1.8,27.5,9.4
			c3.6,3.6,6.6,8,7.3,13.2c0,0-2.4-0.5-2.4-0.5c3.3-5.1,8.6-2.3,11.8,1.3c1.1,1.6,1.7,3.5,2.4,5.3c3.9,11.6,4.1,24.4,9.8,35.4
			c1.5,3.1,3.4,6.4,4.3,9.9c1,3.6,1.3,7.4,0.9,11c-0.7,7.1-1.9,14.1-3.4,21c-0.7,3.3-1.3,6.8-1.2,10.2c0,10.4,4.4,20.3,10.4,28.7
			c2.1,2.8,4.5,5.6,6.1,8.8c1.7,3.2,2.8,6.6,3.6,10.1c1.6,6.9,1.6,14.3-0.7,21c2.7-10.2,0.9-21.3-4.2-30.4c-1.7-3.1-4-5.6-6.2-8.4
			c-7.6-9.9-12.9-22.5-11.4-35.2c1.5-8.7,3.3-17.3,4-26.1c0.5-5-0.4-10.1-2.6-14.7c-4.3-7.7-7.3-16.6-8.6-25.3
			c-0.9-5.1-2-10.3-3.5-15.2c-0.4-1.4-1.3-3.6-1.7-4.4c-0.9-0.9-1.9-1.9-3-2.6c-1.6-1-3.5-1-4.5,0.7c0,0-2,3.3-2,3.3l-0.4-3.7
			c-0.5-4.4-3.1-8.6-6.3-12c-3.2-3.6-7.2-5.9-11.9-7.1c-9.3-2.5-19.1-3-28.7-3C198.4,130.2,198.2,138.6,199.3,143.5L199.3,143.5z"/>
	</g>
	<g>
		<path class="st1" d="M217.3,149.4c0.9-4.3,2.3-8.5,4.9-12c1.8-2.6,5.1-3.5,8.1-4.1c1.6-0.3,3.2-0.3,4.7-0.1
			c-0.8,0-1.6,0.1-2.3,0.2c-2.3,0.4-4.5,1.1-6.7,2.1c-2.5,1.1-4,3.8-5.3,6.1C219.4,144,218.3,146.7,217.3,149.4L217.3,149.4z"/>
	</g>
	<g>
		<path class="st1" d="M221.6,153.7c-0.7-4.2,2-9.1,6.4-9.9c1.4-0.4,2.9-0.3,4.4-0.1c0,0-0.4,0-0.4,0c0.3,0,0.2,0,0.4,0
			c2.1,0.4,3.6,2,5,3.4c1.2,1.4,2.3,2.9,3.2,4.5c-0.8-0.5-1.6-1-2.3-1.5l-2.2-1.5c-1.3-0.8-2.5-1.7-3.9-2.1c0.1,0,0,0,0.2,0
			C226.7,145.9,223.8,148.4,221.6,153.7L221.6,153.7z"/>
	</g>
	<g>
		<path class="st1" d="M286.3,275.3c2.8,7.2,4.8,16.2,1,23.4c-0.6,1-1.3,1.9-2.3,2.6c0.8-0.9,1.4-1.8,1.8-2.8
			C289.8,291,287.8,282.8,286.3,275.3L286.3,275.3z"/>
	</g>
	<g>
		<path class="st1" d="M256.6,268.8c0.2,3.8,1.2,7.7,3.3,10.9c1.1,1.6,2.4,3.2,3.1,5c0.7,1.8,1.2,3.9,0.8,5.8c0-4-2.4-7.3-4.7-10.3
			C256.9,276.8,256.1,272.7,256.6,268.8L256.6,268.8z"/>
	</g>
	<g>
		<path class="st1" d="M330.5,291.8c-1.2-6.9-8.7-9.5-12.6-14.7c-3.4-4.4-1.8-10.4-0.8-15.2c0.8-4.2,2.5-8.4,1.5-12.6
			c-3.5-9.6-11.4-16.6-18.1-24.1c-5.8-6.8-9.9-14.9-12.7-23.3c-1.9-5.6-3.2-11.4-4-17.2c-0.9-5.6-1.4-12.3-1.1-17.5
			c-1.3-7.1-4.8-14.5-11.2-18.3c-7.3-4.3-15.1-2.5-18,5.9c2.5-8.8,10.8-10.9,18.5-6.8c6.9,3.9,10.8,11.5,12.3,19
			c0.2,17.3,3.7,35,12.8,49.9c4.4,7.6,11.4,13.1,16.6,20.2c3,4.2,6.5,8.7,6.9,14c-0.1,7.9-5.3,15.7-2.9,23.6
			c0.5,1.3,1.5,2.5,2.4,3.5C323.6,282.5,329.8,285.6,330.5,291.8L330.5,291.8z"/>
	</g>
	<g>
		<path class="st1" d="M304.7,240.1c2.4-3.4,1.5-7.9,0.2-11.5c-1.2-3.7-3.7-7.3-5.6-10.7c-3.9-7.5-5.7-15.8-6.6-24
			c-0.5-4.3-0.3-8.1-0.4-12.2c-1-11.9-6.5-23.8-16.9-30.3c11.7,5.1,18.4,17.7,19.7,30.1c0.3,4.1,0.1,8.1,0.6,12.2
			c0.7,8,2.3,15.9,5.7,23.2c1.8,3.7,3.9,7.4,4.9,11.4C307.3,232.1,307.6,237,304.7,240.1L304.7,240.1z"/>
	</g>
	<g>
		<path class="st1" d="M249.5,144.9c-0.4-2.2,0.9-4.5,2.4-6.2c3.9-4.1,9.3-0.4,12.3,2.7c1.5,1.6,2.9,3.3,4,5.2l-5.1-4
			c-2.9-2.1-6.8-5.6-10.3-2.8C251.5,141.2,249.9,142.9,249.5,144.9L249.5,144.9z"/>
	</g>
	<path class="st3" d="M201.3,154.2c0,0-9.5,4.5-15.6,5.6l2.6-5.2c0,0,4.3-0.9,4.5-0.9c0.3,0,6.4-0.3,6.4-0.3L201.3,154.2z"/>
	<ellipse class="st14" cx="188.4" cy="229.9" rx="10.8" ry="5.5"/>
	<ellipse class="st14" cx="253.4" cy="231.2" rx="10.8" ry="5.5"/>
	<path class="st10" d="M297,208.6c0,0,4.5,15,13.6,26.3"/>
</g>
</svg>
