<?xml version="1.0" encoding="utf-8"?>
<!-- Generator: Adobe Illustrator 27.0.1, SVG Export Plug-In . SVG Version: 6.00 Build 0)  -->
<svg version="1.1" id="Layer_1" xmlns="http://www.w3.org/2000/svg" xmlns:xlink="http://www.w3.org/1999/xlink" x="0px" y="0px"
	 viewBox="0 0 288 288" style="enable-background:new 0 0 288 288;" xml:space="preserve">
<style type="text/css">
	.st0{fill:#FFFFFF;}
</style>
<path class="st0" d="M139,24.5c-69,0-125,56-125,125s56,125,125,125s125-56,125-125S208,24.5,139,24.5z M203.6,118.6
	c5.3,74.3-74.7,119.5-139.6,82.5c0,0,32,1.6,45.6-14c0,0-19.7,1.6-29.6-22.2c0,0,7.4,2.9,14.8-0.8c0,0-23-3.7-25-31.2
	c0,0,7.4,5.7,15.6,3.7c0,0-25.5-15.2-11.1-42.7c0,0,27.1,34.5,66.1,33.3c-6.2-32.4,32.8-51.7,55.8-28.3c0,0,10.3-2.9,19.3-8.6
	c0,0-3.3,11.1-14.4,18.1c0,0,12.3-1.6,17.7-4.9C218.8,103.4,213.5,114.5,203.6,118.6z"/>
</svg>
